<svg version="1.1" id="Layer_1" xmlns="http://www.w3.org/2000/svg" xmlns:xlink="http://www.w3.org/1999/xlink" x="0px" y="0px"
	 width="100%" viewBox="0 0 512 512" enable-background="new 0 0 512 512" xml:space="preserve">
<path fill="#EAEAEA" opacity="1.000000" stroke="none" 
	d="
M0.999997,368.000000 
	C1.000000,269.645782 1.000000,171.291550 1.331520,72.772728 
	C2.102949,71.956032 2.774982,71.360275 2.948969,70.643616 
	C7.872537,50.363125 18.994024,34.152576 35.700371,21.910553 
	C49.145828,12.058037 64.279579,6.075290 81.124443,6.058686 
	C195.398941,5.946042 309.673584,5.984502 423.948151,6.042264 
	C430.026550,6.045337 436.143066,6.342261 442.175323,7.060779 
	C457.830139,8.925452 471.462158,15.680429 483.237549,25.868717 
	C497.733032,38.410492 507.669922,53.869076 511.117523,73.068375 
	C511.191162,73.478371 512.348328,73.693802 513.000000,74.000000 
	C513.000000,133.020889 513.000000,192.041794 512.699829,251.387604 
	C506.786011,246.514069 501.176880,241.310684 495.557770,236.118057 
	C478.334625,220.202011 461.304047,204.070343 443.821991,188.443863 
	C428.998169,175.193451 411.167389,168.463547 391.386749,168.377716 
	C371.431335,168.291107 354.296478,175.880692 339.737671,189.759872 
	C323.247894,205.479919 306.256989,220.673141 289.575531,236.193802 
	C278.633209,246.374649 267.853119,256.729889 256.641174,267.023376 
	C253.951599,265.229553 251.546021,263.507477 249.304581,261.593170 
	C241.468262,254.900589 234.208969,247.392731 225.792328,241.544815 
	C197.745209,222.057526 158.477921,222.285629 132.654678,246.392197 
	C108.324577,269.104889 83.793823,291.602661 59.340065,314.182800 
	C39.902164,332.131378 20.447315,350.061615 0.999997,368.000000 
M223.860779,105.720718 
	C214.063522,91.940529 200.778366,85.779900 184.142838,89.158005 
	C165.297989,92.984749 153.029221,108.767036 153.325256,127.018265 
	C153.702942,150.302490 172.468567,165.746719 192.428116,165.162720 
	C207.419785,164.724091 218.142212,157.734055 225.251312,145.228943 
	C232.598465,132.305145 231.708878,119.126152 223.860779,105.720718 
M117.033524,122.453407 
	C114.108597,126.532036 114.452591,131.214722 118.320503,131.679749 
	C125.930283,132.594681 133.721405,132.458786 141.390488,131.989395 
	C142.727676,131.907562 144.539093,128.142487 144.797638,125.923180 
	C144.967484,124.465187 142.903687,121.494507 141.562714,121.318817 
	C133.604004,120.276039 125.515602,118.449142 117.033524,122.453407 
M257.102539,120.130432 
	C252.637619,120.386658 248.166687,120.567680 243.709656,120.922791 
	C240.115036,121.209190 237.783920,123.779243 238.386169,126.858002 
	C238.815887,129.054688 241.640213,132.195724 243.660309,132.408752 
	C250.229721,133.101532 256.946777,132.985245 263.554016,132.483215 
	C266.933319,132.226456 268.356201,129.343613 268.065948,125.812767 
	C267.772369,122.241119 265.763367,120.952545 262.425140,120.907028 
	C260.948090,120.886894 259.476257,120.479790 257.102539,120.130432 
M231.065613,101.260269 
	C232.458313,104.809906 234.721725,107.828392 238.803131,106.018532 
	C244.509003,103.488304 250.035324,100.412239 255.258728,96.990112 
	C258.179596,95.076477 260.530487,91.859688 257.893921,88.066536 
	C255.357056,84.416801 251.514832,85.439415 248.494812,86.972115 
	C243.343735,89.586342 238.446655,92.752197 233.668839,96.016991 
	C232.371536,96.903481 231.884277,98.975380 231.065613,101.260269 
M165.852875,184.350113 
	C167.362106,181.592087 169.250214,178.967148 170.278519,176.040161 
	C171.401611,172.843384 172.601059,169.075104 168.479843,166.841064 
	C164.452820,164.658096 161.593781,167.209381 159.700729,170.161682 
	C156.580750,175.027359 154.013748,180.251709 151.287735,185.364365 
	C149.631287,188.471069 150.262680,191.247574 153.267456,193.049774 
	C156.412430,194.936066 159.442459,194.210770 161.651611,191.368271 
	C163.163818,189.422531 164.230652,187.130646 165.852875,184.350113 
M155.997147,77.473831 
	C157.598450,79.770332 159.143494,82.108727 160.814987,84.352951 
	C163.008743,87.298378 166.618042,88.344025 169.055283,86.358971 
	C170.663803,85.048874 171.315567,80.650818 170.386475,78.505577 
	C167.841324,72.628960 164.439789,67.080376 160.966400,61.665489 
	C159.029465,58.645893 155.806915,58.798405 153.079849,60.735477 
	C150.618576,62.483757 149.327148,64.903778 151.022095,68.044388 
	C152.594482,70.957893 154.065308,73.926216 155.997147,77.473831 
M213.121124,176.132965 
	C216.017319,180.972290 218.875946,185.834625 221.822586,190.643036 
	C223.865433,193.976608 227.071701,194.952301 230.438904,193.472366 
	C234.086136,191.869308 233.384659,188.528839 232.024124,185.734329 
	C229.488495,180.526184 226.693497,175.439987 223.882507,170.371796 
	C222.139191,167.228607 219.703339,164.917633 215.807114,166.719177 
	C211.962585,168.496841 211.166565,171.621689 213.121124,176.132965 
M186.849930,52.739029 
	C186.614624,60.428753 186.146164,68.121971 186.261337,75.806450 
	C186.306015,78.787102 188.647263,80.193512 191.885193,80.117615 
	C196.768890,80.003128 197.594223,76.392525 197.847061,72.968178 
	C198.250031,67.510582 198.182480,61.988613 197.886841,56.516941 
	C197.554398,50.364128 192.585022,48.392326 186.849930,52.739029 
M185.919296,184.295929 
	C185.857819,188.405731 185.564453,192.529053 185.802902,196.621368 
	C186.022491,200.389725 187.337616,203.446808 192.171860,203.097183 
	C197.018250,202.746719 197.640656,199.072632 197.868515,195.659531 
	C198.233871,190.187393 198.079010,184.667404 197.894974,179.175980 
	C197.757339,175.069427 194.933228,173.108429 191.243881,173.341568 
	C187.978455,173.547928 185.799759,175.677765 185.951370,179.393738 
	C186.005646,180.723862 185.942490,182.058746 185.919296,184.295929 
M234.500870,147.740936 
	C229.881668,151.834885 229.829102,155.314392 234.750671,158.408783 
	C239.662827,161.497253 244.830475,164.182968 249.917511,166.988342 
	C253.168579,168.781235 256.171570,168.372086 258.137115,165.124405 
	C260.130127,161.831406 258.871490,158.908081 255.874207,156.996750 
	C250.840286,153.786652 245.703461,150.714447 240.438431,147.905685 
	C239.005692,147.141342 236.959076,147.527725 234.500870,147.740936 
M125.009140,89.906120 
	C125.762947,92.111649 125.850708,95.284508 127.392281,96.345963 
	C132.542221,99.891983 138.165909,102.769653 143.703293,105.724998 
	C146.478516,107.206161 149.324310,106.947525 151.130936,104.116524 
	C152.983429,101.213631 152.522934,98.140495 149.692017,96.213600 
	C144.661011,92.789185 139.362442,89.757469 134.171341,86.568726 
	C130.244720,84.156708 127.293068,85.216408 125.009140,89.906120 
M219.554199,66.072701 
	C217.258179,70.287445 214.891464,74.465706 212.690399,78.729469 
	C211.160706,81.692696 211.839966,84.834618 214.741592,85.914940 
	C216.891129,86.715256 221.097076,86.458710 222.116608,85.040665 
	C226.143845,79.439285 229.571442,73.333710 232.520157,67.084251 
	C233.209015,65.624313 231.732025,61.924030 230.188828,60.965595 
	C228.585342,59.969719 225.504486,60.566280 223.430161,61.382542 
	C221.970413,61.956963 221.113434,64.063240 219.554199,66.072701 
M148.069443,147.249023 
	C139.240829,147.873962 132.986359,153.697250 126.355476,158.490204 
	C125.166100,159.349915 124.983696,163.663254 126.057076,165.053421 
	C127.302551,166.666489 130.981842,168.080154 132.667496,167.366547 
	C138.289017,164.986710 143.746429,161.986816 148.780609,158.518860 
	C153.597351,155.200684 153.308472,151.703735 148.069443,147.249023 
z"/>
<path fill="#7F8080" opacity="1.000000" stroke="none" 
	d="
M0.999997,368.468658 
	C20.447315,350.061615 39.902164,332.131378 59.340065,314.182800 
	C83.793823,291.602661 108.324577,269.104889 132.654678,246.392197 
	C158.477921,222.285629 197.745209,222.057526 225.792328,241.544815 
	C234.208969,247.392731 241.468262,254.900589 249.304581,261.593170 
	C251.546021,263.507477 253.951599,265.229553 256.667114,267.368469 
	C260.680817,271.292114 264.216278,274.987091 267.953552,278.465118 
	C286.207733,295.453033 304.512939,312.386139 322.805756,329.332489 
	C336.219513,341.758881 349.644623,354.172943 363.059937,366.597626 
	C381.232697,383.428436 399.431702,400.231171 417.560150,417.109589 
	C429.245514,427.989166 440.779755,439.031067 452.470032,449.905334 
	C458.427917,455.447388 464.678436,460.675568 470.617706,466.236755 
	C476.546844,471.788452 482.252472,477.578857 487.917175,483.560242 
	C485.181000,486.119751 482.666870,488.488098 479.972717,490.629974 
	C466.219971,501.563477 450.596771,507.457062 432.876404,507.727478 
	C432.443146,507.417603 432.189697,507.519226 431.553772,507.961792 
	C317.711761,508.025604 204.335815,508.026306 90.959862,508.020355 
	C87.632812,508.020172 84.305771,507.950317 80.832054,507.710999 
	C80.133728,507.631409 79.582069,507.753815 78.601524,507.925323 
	C71.956619,506.718750 65.576988,505.986938 59.556038,504.106628 
	C43.181309,498.992920 29.847696,489.521332 19.158735,475.892120 
	C11.228854,465.780975 5.447078,454.939301 2.855282,442.367706 
	C2.739913,441.808105 1.640860,441.451263 0.999999,441.000000 
	C1.000000,416.979095 1.000000,392.958221 0.999997,368.468658 
z"/>
<path fill="#9A9A9A" opacity="1.000000" stroke="none" 
	d="
M488.056122,483.264557 
	C482.252472,477.578857 476.546844,471.788452 470.617706,466.236755 
	C464.678436,460.675568 458.427917,455.447388 452.470032,449.905334 
	C440.779755,439.031067 429.245514,427.989166 417.560150,417.109589 
	C399.431702,400.231171 381.232697,383.428436 363.059937,366.597626 
	C349.644623,354.172943 336.219513,341.758881 322.805756,329.332489 
	C304.512939,312.386139 286.207733,295.453033 267.953552,278.465118 
	C264.216278,274.987091 260.680817,271.292114 257.026367,267.352081 
	C267.853119,256.729889 278.633209,246.374649 289.575531,236.193802 
	C306.256989,220.673141 323.247894,205.479919 339.737671,189.759872 
	C354.296478,175.880692 371.431335,168.291107 391.386749,168.377716 
	C411.167389,168.463547 428.998169,175.193451 443.821991,188.443863 
	C461.304047,204.070343 478.334625,220.202011 495.557770,236.118057 
	C501.176880,241.310684 506.786011,246.514069 512.699829,251.856262 
	C513.000000,310.687561 513.000000,369.375122 512.732178,428.761597 
	C512.642883,430.973663 512.821411,432.486847 513.000000,434.000000 
	C513.000000,435.714355 513.000000,437.428711 512.640381,439.322754 
	C511.876953,440.336487 511.289734,441.130280 511.096588,442.010559 
	C507.569061,458.087616 500.005768,471.897644 488.056122,483.264557 
z"/>
<path fill="#000000" opacity="1.000000" stroke="none" 
	d="
M487.917175,483.560242 
	C500.005768,471.897644 507.569061,458.087616 511.096588,442.010559 
	C511.289734,441.130280 511.876953,440.336487 512.640381,439.751221 
	C513.000000,464.317108 513.000000,488.634247 513.000000,512.948242 
	C342.333313,512.945068 171.666656,512.945068 1.000000,512.945068 
	C1.000000,489.239227 1.000000,465.588287 0.999999,441.468658 
	C1.640860,441.451263 2.739913,441.808105 2.855282,442.367706 
	C5.447078,454.939301 11.228854,465.780975 19.158735,475.892120 
	C29.847696,489.521332 43.181309,498.992920 59.556038,504.106628 
	C65.576988,505.986938 71.956619,506.718750 78.922623,507.996521 
	C80.107979,507.983398 80.543350,507.948212 80.978722,507.912964 
	C84.305771,507.950317 87.632812,508.020172 90.959862,508.020355 
	C204.335815,508.026306 317.711761,508.025604 431.793884,508.003784 
	C432.500061,507.981720 432.972656,507.862091 432.972656,507.862091 
	C450.596771,507.457062 466.219971,501.563477 479.972717,490.629974 
	C482.666870,488.488098 485.181000,486.119751 487.917175,483.560242 
z"/>
<path fill="#000000" opacity="1.000000" stroke="none" 
	d="
M513.000000,73.531342 
	C512.348328,73.693802 511.191162,73.478371 511.117523,73.068375 
	C507.669922,53.869076 497.733032,38.410492 483.237549,25.868717 
	C471.462158,15.680429 457.830139,8.925452 442.175323,7.060779 
	C436.143066,6.342261 430.026550,6.045337 423.948151,6.042264 
	C309.673584,5.984502 195.398941,5.946042 81.124443,6.058686 
	C64.279579,6.075290 49.145828,12.058037 35.700371,21.910553 
	C18.994024,34.152576 7.872537,50.363125 2.948969,70.643616 
	C2.774982,71.360275 2.102949,71.956032 1.331520,72.304070 
	C1.000000,48.349117 1.000000,24.698231 1.000003,1.051396 
	C171.666672,1.055444 342.333344,1.055444 513.000000,1.055444 
	C513.000000,25.094820 513.000000,49.078751 513.000000,73.531342 
z"/>
<path fill="#ACACAC" opacity="1.000000" stroke="none" 
	d="
M513.000000,433.583344 
	C512.821411,432.486847 512.642883,430.973663 512.732178,429.230255 
	C513.000000,430.388885 513.000000,431.777802 513.000000,433.583344 
z"/>
<path fill="#BBBCBC" opacity="1.000000" stroke="none" 
	d="
M224.035370,106.040001 
	C231.708878,119.126152 232.598465,132.305145 225.251312,145.228943 
	C218.142212,157.734055 207.419785,164.724091 192.428116,165.162720 
	C172.468567,165.746719 153.702942,150.302490 153.325256,127.018265 
	C153.029221,108.767036 165.297989,92.984749 184.142838,89.158005 
	C200.778366,85.779900 214.063522,91.940529 224.035370,106.040001 
z"/>
<path fill="#BCBDBD" opacity="1.000000" stroke="none" 
	d="
M117.339935,122.200043 
	C125.515602,118.449142 133.604004,120.276039 141.562714,121.318817 
	C142.903687,121.494507 144.967484,124.465187 144.797638,125.923180 
	C144.539093,128.142487 142.727676,131.907562 141.390488,131.989395 
	C133.721405,132.458786 125.930283,132.594681 118.320503,131.679749 
	C114.452591,131.214722 114.108597,126.532036 117.339935,122.200043 
z"/>
<path fill="#BCBDBD" opacity="1.000000" stroke="none" 
	d="
M257.552307,120.189392 
	C259.476257,120.479790 260.948090,120.886894 262.425140,120.907028 
	C265.763367,120.952545 267.772369,122.241119 268.065948,125.812767 
	C268.356201,129.343613 266.933319,132.226456 263.554016,132.483215 
	C256.946777,132.985245 250.229721,133.101532 243.660309,132.408752 
	C241.640213,132.195724 238.815887,129.054688 238.386169,126.858002 
	C237.783920,123.779243 240.115036,121.209190 243.709656,120.922791 
	C248.166687,120.567680 252.637619,120.386658 257.552307,120.189392 
z"/>
<path fill="#BCBDBD" opacity="1.000000" stroke="none" 
	d="
M231.045425,100.881744 
	C231.884277,98.975380 232.371536,96.903481 233.668839,96.016991 
	C238.446655,92.752197 243.343735,89.586342 248.494812,86.972115 
	C251.514832,85.439415 255.357056,84.416801 257.893921,88.066536 
	C260.530487,91.859688 258.179596,95.076477 255.258728,96.990112 
	C250.035324,100.412239 244.509003,103.488304 238.803131,106.018532 
	C234.721725,107.828392 232.458313,104.809906 231.045425,100.881744 
z"/>
<path fill="#BCBDBD" opacity="1.000000" stroke="none" 
	d="
M165.674744,184.671814 
	C164.230652,187.130646 163.163818,189.422531 161.651611,191.368271 
	C159.442459,194.210770 156.412430,194.936066 153.267456,193.049774 
	C150.262680,191.247574 149.631287,188.471069 151.287735,185.364365 
	C154.013748,180.251709 156.580750,175.027359 159.700729,170.161682 
	C161.593781,167.209381 164.452820,164.658096 168.479843,166.841064 
	C172.601059,169.075104 171.401611,172.843384 170.278519,176.040161 
	C169.250214,178.967148 167.362106,181.592087 165.674744,184.671814 
z"/>
<path fill="#BCBDBD" opacity="1.000000" stroke="none" 
	d="
M155.789001,77.172119 
	C154.065308,73.926216 152.594482,70.957893 151.022095,68.044388 
	C149.327148,64.903778 150.618576,62.483757 153.079849,60.735477 
	C155.806915,58.798405 159.029465,58.645893 160.966400,61.665489 
	C164.439789,67.080376 167.841324,72.628960 170.386475,78.505577 
	C171.315567,80.650818 170.663803,85.048874 169.055283,86.358971 
	C166.618042,88.344025 163.008743,87.298378 160.814987,84.352951 
	C159.143494,82.108727 157.598450,79.770332 155.789001,77.172119 
z"/>
<path fill="#BCBDBD" opacity="1.000000" stroke="none" 
	d="
M212.956970,175.786316 
	C211.166565,171.621689 211.962585,168.496841 215.807114,166.719177 
	C219.703339,164.917633 222.139191,167.228607 223.882507,170.371796 
	C226.693497,175.439987 229.488495,180.526184 232.024124,185.734329 
	C233.384659,188.528839 234.086136,191.869308 230.438904,193.472366 
	C227.071701,194.952301 223.865433,193.976608 221.822586,190.643036 
	C218.875946,185.834625 216.017319,180.972290 212.956970,175.786316 
z"/>
<path fill="#BCBDBD" opacity="1.000000" stroke="none" 
	d="
M187.112671,52.425571 
	C192.585022,48.392326 197.554398,50.364128 197.886841,56.516941 
	C198.182480,61.988613 198.250031,67.510582 197.847061,72.968178 
	C197.594223,76.392525 196.768890,80.003128 191.885193,80.117615 
	C188.647263,80.193512 186.306015,78.787102 186.261337,75.806450 
	C186.146164,68.121971 186.614624,60.428753 187.112671,52.425571 
z"/>
<path fill="#BCBDBD" opacity="1.000000" stroke="none" 
	d="
M185.926117,183.843689 
	C185.942490,182.058746 186.005646,180.723862 185.951370,179.393738 
	C185.799759,175.677765 187.978455,173.547928 191.243881,173.341568 
	C194.933228,173.108429 197.757339,175.069427 197.894974,179.175980 
	C198.079010,184.667404 198.233871,190.187393 197.868515,195.659531 
	C197.640656,199.072632 197.018250,202.746719 192.171860,203.097183 
	C187.337616,203.446808 186.022491,200.389725 185.802902,196.621368 
	C185.564453,192.529053 185.857819,188.405731 185.926117,183.843689 
z"/>
<path fill="#BCBDBD" opacity="1.000000" stroke="none" 
	d="
M234.847534,147.563461 
	C236.959076,147.527725 239.005692,147.141342 240.438431,147.905685 
	C245.703461,150.714447 250.840286,153.786652 255.874207,156.996750 
	C258.871490,158.908081 260.130127,161.831406 258.137115,165.124405 
	C256.171570,168.372086 253.168579,168.781235 249.917511,166.988342 
	C244.830475,164.182968 239.662827,161.497253 234.750671,158.408783 
	C229.829102,155.314392 229.881668,151.834885 234.847534,147.563461 
z"/>
<path fill="#BCBDBD" opacity="1.000000" stroke="none" 
	d="
M125.081879,89.516144 
	C127.293068,85.216408 130.244720,84.156708 134.171341,86.568726 
	C139.362442,89.757469 144.661011,92.789185 149.692017,96.213600 
	C152.522934,98.140495 152.983429,101.213631 151.130936,104.116524 
	C149.324310,106.947525 146.478516,107.206161 143.703293,105.724998 
	C138.165909,102.769653 132.542221,99.891983 127.392281,96.345963 
	C125.850708,95.284508 125.762947,92.111649 125.081879,89.516144 
z"/>
<path fill="#BCBDBD" opacity="1.000000" stroke="none" 
	d="
M219.770752,65.779114 
	C221.113434,64.063240 221.970413,61.956963 223.430161,61.382542 
	C225.504486,60.566280 228.585342,59.969719 230.188828,60.965595 
	C231.732025,61.924030 233.209015,65.624313 232.520157,67.084251 
	C229.571442,73.333710 226.143845,79.439285 222.116608,85.040665 
	C221.097076,86.458710 216.891129,86.715256 214.741592,85.914940 
	C211.839966,84.834618 211.160706,81.692696 212.690399,78.729469 
	C214.891464,74.465706 217.258179,70.287445 219.770752,65.779114 
z"/>
<path fill="#BCBDBD" opacity="1.000000" stroke="none" 
	d="
M148.422440,147.407227 
	C153.308472,151.703735 153.597351,155.200684 148.780609,158.518860 
	C143.746429,161.986816 138.289017,164.986710 132.667496,167.366547 
	C130.981842,168.080154 127.302551,166.666489 126.057076,165.053421 
	C124.983696,163.663254 125.166100,159.349915 126.355476,158.490204 
	C132.986359,153.697250 139.240829,147.873962 148.422440,147.407227 
z"/>
<path fill="#878787" opacity="1.000000" stroke="none" 
	d="
M80.832054,507.710999 
	C80.543350,507.948212 80.107979,507.983398 79.351501,507.947388 
	C79.582069,507.753815 80.133728,507.631409 80.832054,507.710999 
z"/>
<path fill="#878787" opacity="1.000000" stroke="none" 
	d="
M432.876404,507.727478 
	C432.972656,507.862091 432.500061,507.981720 432.259949,507.939697 
	C432.189697,507.519226 432.443146,507.417603 432.876404,507.727478 
z"/>
</svg>